# xmcd
#
# Track frame offsets:
#	150
#	16399
#	28923
#	44255
#	61638
#	80506
#	97268
#	112708
#	126609
#	144586
#	157245
#	168879
#	184643
#	199111
#	213795
#	224160
#	238817
#	252988
#	266403
#	278630
#	295311
#	306108
#
# Disc length: 4289 seconds
#
# Revision: 1
# Processed by: cddbd v1.5.2PL0 Copyright (c) Steve Scherf et al.
# Submitted via: audiograbber 1.83.01
#
DISCID=4b10bf16
DTITLE=AS MINEIRINHAS - OS GRANDES SUCESSOS
DYEAR=1993
DGENRE=SERTANEJO
TTITLE0=BRIGA COM ELA
TTITLE1=E DE SAUDADE ESTOU MORRENDO
TTITLE2=NUNCA MAIS TE DOU MEU AMOR
TTITLE3=DONO DE TUDO
TTITLE4=E EU TE AMEI
TTITLE5=ABRA O CORACAO
TTITLE6=NAO ME DEIXE FALTAR AMOR
TTITLE7=ASSIM VOCE VAI ME PERDER
TTITLE8=QUALQUER JEITO
TTITLE9=CANCAO DOS NAMORADOS
TTITLE10=O HOMEM DA MINHA VIDA
TTITLE11=QUEM NUNCA OUVIU
TTITLE12=CARTAO POSTAL
TTITLE13=LEMBRANÇAS
TTITLE14=RODEO SHOW
TTITLE15=BEM FEITO PRA MIM
TTITLE16=A SAUDADE DOI DEMAIS
TTITLE17=SO QUERO TE DIZER
TTITLE18=COITADA DE MIM
TTITLE19=CARTAS NA MESA
TTITLE20=CUSTE O QUE CUSTAR
TTITLE21=O QUE EU FACO AMANHA
EXTD=DISCO SERTANEJO DE SANDRA E VALERIA... MARAVILHOSAS CANTORAS !!!!!
EXTT0=
EXTT1=
EXTT2=
EXTT3=
EXTT4=
EXTT5=
EXTT6=
EXTT7=
EXTT8=
EXTT9=
EXTT10=
EXTT11=
EXTT12=
EXTT13=
EXTT14=
EXTT15=
EXTT16=
EXTT17=
EXTT18=
EXTT19=
EXTT20=
EXTT21=
PLAYORDER=
